<svg width="124" height="118" viewBox="0 0 124 118" fill="none" xmlns="http://www.w3.org/2000/svg">
<g filter="url(#filter0_d_219_1546)">
<path fill-rule="evenodd" clip-rule="evenodd" d="M0 53.9616V17.5367C-1.49029e-05 8.13184 5.95457 1.42969 14.5158 1.42969C21.8957 1.42969 28.2366 7.47852 28.9625 13.8033C28.9824 13.9765 28.9653 14.152 28.9123 14.3181C28.8594 14.4843 28.7717 14.6373 28.6552 14.7671C28.5388 14.8968 28.3961 15.0004 28.2366 15.0709C27.4311 15.283 26.5228 15.4761 25.5757 15.6775C24.8947 15.8223 24.1936 15.9714 23.4962 16.1348C22.7683 16.3054 22.0202 15.9302 21.8455 15.2033C21.7283 14.7155 21.6222 14.1805 21.511 13.6202C20.8037 10.0538 19.8925 5.45979 14.6168 5.45979C9.66676 5.45979 8.13416 12.7698 8.13416 16.4533V27.6851C11.5246 26.8491 15.0593 26.7157 18.5188 27.3037C19.3914 27.4516 19.9509 28.2083 19.7512 28.8886C19.6427 29.2583 19.5401 29.6142 19.4381 29.9677C19.3524 30.2647 19.2672 30.56 19.1794 30.8605C19.0714 31.1876 18.8397 31.4595 18.5338 31.6179C18.2279 31.7764 17.8722 31.8089 17.5427 31.7085C14.4831 30.8178 11.2707 30.6146 8.13416 31.1059V52.7587C8.13365 53.0424 8.03528 53.3173 7.85566 53.5368C7.67604 53.7564 7.42616 53.9073 7.1482 53.9641L1.47894 55.1669C1.30006 55.2034 1.1153 55.1998 0.938019 55.1561C0.760737 55.1125 0.595358 55.0301 0.453837 54.9147C0.312316 54.7994 0.198189 54.6541 0.119702 54.4892C0.041215 54.3244 0.000327689 54.1442 0 53.9616Z" fill="white"/>
<path d="M38.7853 53.9668L33.2393 55.1598C33.0598 55.1984 32.8739 55.1963 32.6952 55.1538C32.5166 55.1113 32.3497 55.0294 32.2067 54.9141C32.0638 54.7988 31.9484 54.653 31.8691 54.4874C31.7897 54.3218 31.7484 54.1406 31.748 53.9569V2.42583C31.748 2.14385 31.8446 1.87037 32.0218 1.65102C32.1989 1.43167 32.446 1.27971 32.7217 1.22049L38.2677 0.027483C38.4472 -0.0110818 38.6331 -0.00903715 38.8118 0.0334707C38.9904 0.0759787 39.1573 0.157873 39.3003 0.273168C39.4432 0.388463 39.5586 0.534245 39.6379 0.699853C39.7173 0.865461 39.7586 1.04671 39.759 1.23035V52.7615C39.759 53.0434 39.6624 53.3169 39.4852 53.5363C39.3081 53.7556 39.061 53.9076 38.7853 53.9668Z" fill="white"/>
<path d="M68.2974 41.4965L68.5981 30.6682C68.5981 30.6682 68.0016 28.3241 65.2064 30.3059C65.2064 30.3059 64.605 27.0029 58.3318 27.0029C52.0586 27.0029 42.9336 33.1652 42.9336 42.8547C42.9336 56.5767 50.7966 55.9186 60.003 52.4283C60.003 52.4283 59.6875 54.5112 62.1179 54.5112C64.5483 54.5112 69.5619 53.2393 69.7591 52.172C70.077 50.3874 68.1914 50.8804 68.2974 41.4965ZM50.9642 41.3634C51.1121 36.8822 53.8309 32.6254 57.1265 31.2894C57.3409 31.2253 60.6562 30.2738 60.6266 33.7173V47.0277C60.6488 49.5271 58.2776 50.0201 56.8676 50.0941C53.3157 50.0349 50.7596 47.6415 50.9642 41.3634Z" fill="white"/>
<path fill-rule="evenodd" clip-rule="evenodd" d="M103.6 53.9668L98.0538 55.1598C97.8751 55.1963 97.6906 55.1926 97.5135 55.1492C97.3364 55.1057 97.1711 55.0235 97.0296 54.9084C96.8882 54.7933 96.774 54.6483 96.6954 54.4838C96.6167 54.3192 96.5756 54.1393 96.5749 53.9569V43.8679C96.565 43.5408 96.5601 43.2049 96.5601 42.8599C96.5601 42.6335 96.565 42.409 96.5749 42.1865V2.42583C96.5748 2.14385 96.6714 1.87037 96.8486 1.65102C97.0258 1.43167 97.2728 1.27971 97.5485 1.22049L103.095 0.027483C103.274 -0.0110818 103.46 -0.00903715 103.639 0.0334708C103.817 0.0759787 103.984 0.157873 104.127 0.273168C104.27 0.388463 104.385 0.534245 104.465 0.699853C104.544 0.865461 104.585 1.04671 104.586 1.23035V29.3116C107.039 27.8178 109.688 27.0082 111.961 27.0082C112.716 27.0082 113.39 27.0561 113.989 27.1405V27.1389C116.114 27.1389 118.152 27.9829 119.654 29.4852C121.156 30.9876 122 33.0252 122 35.1498V52.7615C122 53.0452 121.901 53.32 121.722 53.5396C121.542 53.7592 121.292 53.9101 121.014 53.9668L115.468 55.1598C115.29 55.1963 115.105 55.1927 114.928 55.1492C114.751 55.1057 114.586 55.0235 114.444 54.9084C114.303 54.7933 114.188 54.6483 114.11 54.4838C114.031 54.3192 113.99 54.1393 113.989 53.9569V32.3177C113.224 30.5779 110.911 31.2415 110.733 31.2946C107.538 32.5987 104.848 35.9346 104.586 40.2611V52.7615C104.585 53.0452 104.487 53.32 104.307 53.5396C104.128 53.7592 103.878 53.9101 103.6 53.9668Z" fill="white"/>
<path d="M84.5656 33.313L89.5323 33.2465C89.699 33.2534 89.8652 33.2243 90.0196 33.1613C90.174 33.0982 90.313 33.0026 90.4272 32.881C90.5413 32.7593 90.6279 32.6145 90.6811 32.4564C90.7342 32.2983 90.7527 32.1306 90.7352 31.9647C90.4887 30.4168 88.0608 27.0078 84.3511 27.0078C78.8913 27.0078 71.7949 27.4613 71.7949 35.3367C71.7949 43.0765 85.2952 40.2147 85.2952 45.4674C85.2952 50.0644 82.0908 49.4679 80.6858 47.8362C80.5106 47.6419 80.2812 47.5047 80.0272 47.4423C79.7732 47.3799 79.5063 47.3952 79.2611 47.4862L73.3774 49.6232C73.1946 49.6776 73.0295 49.7793 72.8987 49.9181C72.7679 50.0568 72.676 50.2277 72.6325 50.4133C72.589 50.599 72.5953 50.7928 72.6508 50.9753C72.7062 51.1577 72.809 51.3222 72.9485 51.4522C74.1809 52.6107 76.5029 54.1414 80.0967 54.1414C85.8867 54.1414 93.5082 50.6905 93.5082 45.4871C93.5082 36.505 79.8157 37.846 79.8157 34.013C79.8157 30.1013 82.2239 30.4611 82.9806 30.7865C83.7373 31.1119 82.6774 33.3796 84.5656 33.313Z" fill="white"/>
</g>
<g filter="url(#filter1_d_219_1546)">
<path d="M28.8145 81.1195L29.1152 70.2962C29.1152 70.2962 28.5187 67.952 25.7235 69.9313C25.7235 69.9313 25.122 66.6309 18.8489 66.6309C12.5757 66.6309 3.45068 72.7931 3.45068 82.4826C3.45068 96.2047 11.3137 95.5465 20.5201 92.0562C20.5201 92.0562 20.2021 94.1391 22.6325 94.1391C25.0629 94.1391 30.079 92.8647 30.2737 91.7999C30.5966 90.0079 28.7085 90.5132 28.8145 81.1195ZM11.4813 80.9839C11.6267 76.5028 14.348 72.2484 17.6312 70.9124C17.8457 70.8483 21.161 69.8944 21.1289 73.3378V86.6483C21.1536 89.1501 18.7823 89.6431 17.3724 89.7171C13.8378 89.6579 11.2792 87.2645 11.4838 80.9839H11.4813Z" fill="white"/>
<path d="M117.038 81.1195L117.341 70.2962C117.341 70.2962 116.742 67.952 113.947 69.9313C113.947 69.9313 113.346 66.6309 107.075 66.6309C100.804 66.6309 91.6694 72.7882 91.6694 82.4826C91.6694 96.2047 99.5349 95.5465 108.739 92.0562C108.739 92.0562 108.423 94.1391 110.854 94.1391C113.284 94.1391 118.298 92.8647 118.495 91.7999C118.82 90.0079 116.932 90.5132 117.038 81.1195ZM99.7075 80.9839C99.8529 76.5028 102.574 72.2484 105.855 70.9124C106.072 70.8483 109.387 69.8944 109.355 73.3378V86.6483C109.377 89.1501 107.008 89.6431 105.596 89.7171C102.061 89.6579 99.5029 87.2645 99.7075 80.9839Z" fill="white"/>
<path fill-rule="evenodd" clip-rule="evenodd" d="M55.2436 69.5802C55.2419 69.5765 55.2402 69.5727 55.2384 69.569C54.8736 68.7112 53.4686 66.6309 48.4871 66.6309C42.2164 66.6309 33.0889 72.7931 33.0889 82.4826C33.0889 96.1652 41.5928 95.4134 50.7696 91.9429L50.7696 115.212C50.7699 115.395 50.8112 115.576 50.8906 115.742C50.9699 115.908 51.0853 116.053 51.2282 116.169C51.3712 116.284 51.5381 116.366 51.7167 116.408C51.8954 116.451 52.0813 116.453 52.2608 116.414L57.8068 115.221C58.0825 115.162 58.3296 115.01 58.5068 114.791C58.6839 114.572 58.7806 114.298 58.7805 114.016C58.647 103.068 58.1496 92.0671 58.4526 81.1195L58.7534 70.2962C58.7534 70.2962 58.4565 69.1253 57.2962 69.1381M47.0106 89.7097C48.4117 89.6333 50.7647 89.1413 50.7696 86.683V73.2821C50.7638 69.9034 47.4837 70.8484 47.2694 70.9124C43.9862 72.2484 41.2674 76.5028 41.1195 80.9839C40.9149 87.2645 43.4735 89.6579 47.0106 89.7097Z" fill="white"/>
<path fill-rule="evenodd" clip-rule="evenodd" d="M70.676 94.1831V94.1858C69.2326 94.1858 67.9285 93.9207 66.8118 93.306C64.3232 91.939 62.7638 88.8376 62.665 83.0664H62.67V67.6265C62.6698 67.3449 62.7661 67.0717 62.9428 66.8524C63.1195 66.6331 63.366 66.4809 63.6412 66.4212L69.1847 65.2257C69.3645 65.1871 69.5506 65.1892 69.7294 65.2319C69.9083 65.2745 70.0753 65.3566 70.2183 65.4722C70.3613 65.5878 70.4766 65.7339 70.5558 65.8998C70.635 66.0657 70.6761 66.2472 70.676 66.4311V83.0664H70.7351C71.1147 87.799 73.4687 89.66 76.5818 89.7068C77.9496 89.6348 80.2167 89.1704 80.3359 86.865V67.6263C80.3335 67.3503 80.4238 67.0816 80.5923 66.863C80.7607 66.6445 80.9977 66.4888 81.2652 66.4209L86.5647 65.2255C86.7414 65.1889 86.9241 65.1929 87.0991 65.237C87.2741 65.2811 87.4368 65.3643 87.575 65.4802C87.7133 65.5962 87.8235 65.7419 87.8974 65.9066C87.9713 66.0712 88.007 66.2504 88.0017 66.4308V83.0688H88.0337C88.1351 87.7362 88.8092 89.3295 89.2151 90.2886C89.4509 90.8459 89.5961 91.1891 89.4856 91.797C89.4215 92.147 88.8422 92.5168 88.0066 92.8594C88.005 92.8601 88.0034 92.8607 88.0017 92.8614V92.8619C86.2763 93.5619 83.4836 94.1387 81.8395 94.1387C81.3036 94.1721 80.7726 94.0198 80.3359 93.7073V93.701C79.5724 93.0916 79.7295 92.0534 79.7295 92.0534C76.4409 93.3023 73.3247 94.1869 70.676 94.1831Z" fill="white"/>
</g>
<defs>
<filter id="filter0_d_219_1546" x="0" y="0" width="123.479" height="56.1774" filterUnits="userSpaceOnUse" color-interpolation-filters="sRGB">
<feFlood flood-opacity="0" result="BackgroundImageFix"/>
<feColorMatrix in="SourceAlpha" type="matrix" values="0 0 0 0 0 0 0 0 0 0 0 0 0 0 0 0 0 0 127 0" result="hardAlpha"/>
<feOffset dx="1.47894" dy="0.985958"/>
<feComposite in2="hardAlpha" operator="out"/>
<feColorMatrix type="matrix" values="0 0 0 0 0.203194 0 0 0 0 0.297825 0 0 0 0 0.633333 0 0 0 1 0"/>
<feBlend mode="normal" in2="BackgroundImageFix" result="effect1_dropShadow_219_1546"/>
<feBlend mode="normal" in="SourceGraphic" in2="effect1_dropShadow_219_1546" result="shape"/>
</filter>
<filter id="filter1_d_219_1546" x="3.45068" y="65.1982" width="116.561" height="52.2291" filterUnits="userSpaceOnUse" color-interpolation-filters="sRGB">
<feFlood flood-opacity="0" result="BackgroundImageFix"/>
<feColorMatrix in="SourceAlpha" type="matrix" values="0 0 0 0 0 0 0 0 0 0 0 0 0 0 0 0 0 0 127 0" result="hardAlpha"/>
<feOffset dx="1.47894" dy="0.985958"/>
<feComposite in2="hardAlpha" operator="out"/>
<feColorMatrix type="matrix" values="0 0 0 0 0.203194 0 0 0 0 0.297825 0 0 0 0 0.633333 0 0 0 1 0"/>
<feBlend mode="normal" in2="BackgroundImageFix" result="effect1_dropShadow_219_1546"/>
<feBlend mode="normal" in="SourceGraphic" in2="effect1_dropShadow_219_1546" result="shape"/>
</filter>
</defs>
</svg>
